<svg xmlns="http://www.w3.org/2000/svg" version="1.1" xmlns:xlink="http://www.w3.org/1999/xlink" xmlns:svgjs="http://svgjs.com/svgjs" width="1440" height="550" preserveAspectRatio="none" viewBox="0 0 1440 550"><g mask="url(&quot;#SvgjsMask1015&quot;)" fill="none"><path d="M46 550L596 0L876.5 0L326.5 550z" fill="url(#SvgjsLinearGradient1016)"></path><path d="M351.8 550L901.8 0L1005.3 0L455.3 550z" fill="url(#SvgjsLinearGradient1016)"></path><path d="M657.6 550L1207.6 0L1653.1 0L1103.1 550z" fill="url(#SvgjsLinearGradient1016)"></path><path d="M1405 550L855 0L804 0L1354 550z" fill="url(#SvgjsLinearGradient1017)"></path><path d="M1076.2 550L526.2 0L362.70000000000005 0L912.7 550z" fill="url(#SvgjsLinearGradient1017)"></path><path d="M791.4 550L241.39999999999998 0L-49.60000000000002 0L500.4 550z" fill="url(#SvgjsLinearGradient1017)"></path><path d="M1046.1302347981489 550L1440 156.13023479814893L1440 550z" fill="url(#SvgjsLinearGradient1016)"></path><path d="M0 550L393.86976520185107 550L 0 156.13023479814893z" fill="url(#SvgjsLinearGradient1017)"></path></g><defs><mask id="SvgjsMask1015"><rect width="1440" height="550" fill="#ffffff"></rect></mask><linearGradient x1="0%" y1="100%" x2="100%" y2="0%" id="SvgjsLinearGradient1016"><stop stop-color="rgba(15, 70, 185, 0.2)" offset="0"></stop><stop stop-opacity="0" stop-color="rgba(15, 70, 185, 0.2)" offset="0.66"></stop></linearGradient><linearGradient x1="100%" y1="100%" x2="0%" y2="0%" id="SvgjsLinearGradient1017"><stop stop-color="rgba(15, 70, 185, 0.2)" offset="0"></stop><stop stop-opacity="0" stop-color="rgba(15, 70, 185, 0.2)" offset="0.66"></stop></linearGradient></defs></svg>